<svg xmlns="http://www.w3.org/2000/svg" xmlns:xlink="http://www.w3.org/1999/xlink"  width="210" height="297" viewBox="0 0 210 297"><defs><linearGradient id="A" x1="121.37" x2="176.9" y1="199.6" y2="199.6" xlink:href="#N"><stop stop-color="#2895b4" offset="0"/><stop stop-color="#2c5d97" offset="1"/></linearGradient><linearGradient id="B" x1="91.613" x2="133.71" y1="70.759" y2="33.398" xlink:href="#N"><stop stop-color="#443c6e" offset="0"/><stop stop-color="#6f417e" offset="1"/></linearGradient><linearGradient id="C" x1="110.39" x2="141.07" y1="71.565" y2="80.689" xlink:href="#N"><stop stop-color="#329fb6" offset=".5"/><stop stop-color="#33b9c2" offset="1"/></linearGradient><linearGradient id="D" x1="109.09" x2="163.07" y1="169.74" y2="156.84" xlink:href="#N"><stop stop-color="#fbbe32" offset="0"/><stop stop-color="#ea6823" offset="1"/></linearGradient><linearGradient id="E" x1="103.17" x2="188.29" y1="160.26" y2="160.26" xlink:href="#N"><stop stop-color="#e96833" offset="0"/><stop stop-color="#d52a3a" offset="1"/></linearGradient><linearGradient id="F" x1="70.865" x2="100.24" y1="156.36" y2="169.81" xlink:href="#N"><stop stop-color="#479970" offset="0"/><stop stop-color="#fec511" offset="1"/></linearGradient><linearGradient id="G" x1="64.222" x2="66.407" y1="221.86" y2="263.57" xlink:href="#N"><stop stop-color="#f19d3a" offset="0"/><stop stop-color="#e96729" offset="1"/></linearGradient><clipPath id="H"><path d="M-.183 158.44H24.65v27.933H-.183zm13.443 14.093a1.112 1.14 0 0 0-1.112-1.14 1.112 1.14 0 0 0-1.112 1.14 1.112 1.14 0 0 0 1.112 1.14 1.112 1.14 0 0 0 1.112-1.14z" fill="#fff"/></clipPath><clipPath id="I"><path d="M-.812 158.44h25.934v28.248H-.812zm14.073 14.093a1.112 1.14 0 0 0-1.112-1.14 1.112 1.14 0 0 0-1.112 1.14 1.112 1.14 0 0 0 1.112 1.14 1.112 1.14 0 0 0 1.112-1.14z" fill="#fff"/></clipPath><clipPath id="J"><path d="M-1.349 158.44h27.276v28.248H-1.349zm14.609 14.093a1.112 1.14 0 0 0-1.112-1.14 1.112 1.14 0 0 0-1.112 1.14 1.112 1.14 0 0 0 1.112 1.14 1.112 1.14 0 0 0 1.112-1.14z" fill="#fff"/></clipPath><clipPath id="K"><path d="M-1.349 158.44h27.276v28.248H-1.349zm14.609 14.093a1.112 1.14 0 0 0-1.112-1.14 1.112 1.14 0 0 0-1.112 1.14 1.112 1.14 0 0 0 1.112 1.14 1.112 1.14 0 0 0 1.112-1.14z" fill="#fff"/></clipPath><clipPath id="L"><path d="M-1.349 158.44h27.276v28.248H-1.349zm14.609 14.093a1.112 1.14 0 0 0-1.112-1.14 1.112 1.14 0 0 0-1.112 1.14 1.112 1.14 0 0 0 1.112 1.14 1.112 1.14 0 0 0 1.112-1.14z" fill="#fff"/></clipPath><path id="M" d="M12.164 163.44c1.043 4.404 4.361 8.31 8.762 9.336-3.631 1.339-7.558 3.075-8.781 8.912-.743-4.956-4.638-8.163-8.494-8.825 3.762-1.173 7.436-4.991 8.513-9.422z"/><linearGradient id="N" gradientUnits="userSpaceOnUse"/></defs><path d="M84.483 255.34c1.683 3.788 3.62 6.797 5.451 8.231 5.707 9.499 12.718 15.053 21.913 15.072 7.614.2 11.847-2.659 16.463-5.172 4.134 3.195 9.106 5.273 15.462 5.506 4.333.175 7.64-1.143 10.345-3.337l9.956 1.001c3.875.041 6.173-1.639 8.454-3.337 5.786-6.167 11.845-12.242 16.796-18.687 3.066-3.766 4.392-13.876-6.062-20.801-3.581-12.412-12.47-49.759-28.476-67.686 13.167-1.555 36.473 8.754 26.363 31.09 27.635-14.737 6.585-52.124-20.189-56.785-5.323-3.822-11.123-7.347-18.799-9.844l-13.07 12.569c-1.336.477-3.007 1.177-3.949 1.39.377-2.639 2.046-4.992 3.726-7.341 1.188-1.07 2.474-2.062 2.225-4.282l-.222-6.007c2.314.284 6.972-2.467 6.507-8.231-.217-4.25-2.324-7.112-5.84-7.731l1.835-4.783 9.01 3.003c4.705-2.612 9.308-5.899 13.571-11.457l-7.953-20.022c-9.522-6.742-16.879-9.443-23.582-10.122l-6.062-19.188c6.81-.725 13.322.827 19.689 3.504l3.838-23.415-12.848-2.837-2.002 6.896c-3.98-1.371-7.804-2.856-10.178-5.395-1.918-3.894-5.526-4.147-9.344-3.949-7.011 2.592-10.742 4.174-19.132 12.681L75.251 78.367C59.935 86.412 56.7 91.896 52.448 97.499c4.543 5.022 9.38 8.938 14.516 11.735l8.454-2.948 2.169 4.561c-3.795 1.374-5.002 4.278-5.562 7.564.381 5.551 2.854 7.914 6.34 8.732l-.111 6.507c.735 2.472 2.835 3.413 3.893 5.061 1.3 2.18 2.272 4.195 2.391 5.784-21.969-.146-30.851 8.298-38.543 14.516l10.4 5.895c-13.922 14.296-21.58 41.119-28.921 68.576-6.642 3.364-8.643 8.238-9.399 13.515-.031 8.397 5.749 11.836 9.511 16.685 5.376 5.32 10.484 14.887 18.187 12.681l23.081-5.172c8.027-1.855 15.184-10.696 15.628-15.851z" fill="#19224c"/><path d="M139.32 271.55c1.641.907 4.016.981 6.841.556 6.55-1.354 9.497-5.79 10.122-12.097.267-2.683.716-11.043-4.755-18.354-3.335-3.78-7.176-9.08-10.79-8.954-1.243.243-2.257.387-3.977.834 3.619 8.094 7.472 16.025 7.786 26.418-.108 5.93-1.283 9.787-5.228 11.596z" fill="#ffd72a" stroke="#000" stroke-width=".1"/><path d="M146.16 272.11c6.55-1.354 9.497-5.79 10.122-12.097.267-2.683-3.901-7.901-4.7-8.787.891 10.662-1.948 17.925-5.423 20.884z" fill="#f08825"/><path d="M102.33 269.16c5.455 6.295 21.915 4.793 36.889-11.326-.096-1.952-.509-3.904-1.121-5.958-1.471-5.292-8.99-9.712-12.014-9.615-1.761-.132-4.04 1.309-4.09 2.989-.016.964.558 2.181 1.58 3.59 1.115 1.364 1.945 2.764 1.881 4.275.264 6.638-11.912 17.28-23.124 16.046z" fill="#f0a64e"/><path d="M102.33 269.16c6.831 7.75 26.844-.995 32.366-13.214.258-2.424-.764-4.396-2.95-7.669-2.729-3.463-4.055-5.189-7.079-5.427-.974-.053-2.624.719-2.674 2.399-.016.964.558 2.181 1.58 3.59 1.115 1.364 1.945 2.764 1.881 4.275.264 6.638-11.912 17.28-23.124 16.046z" fill="#f8d481"/><path d="M134.93 238.83c.664.992.963 1.984 1.349 2.976-.533-.228-1.066-.549-1.599-1.182.007-.72.059-1.368.25-1.794z" fill="#f3c162"/><path d="M120.72 252.62c-.904-1.244-1.563-2.419-2.02-3.521l-.409-1.135c-1.157-3.797.14-6.612 1.9-8.203.788-.712 1.668-1.179 2.462-1.378-.854-3.012-2.53-6.925-6.482-13.33-2.176-3.959-5.473-8.251-5.21-12.939l-.139-9.547-1.715-.023c-2.044.045-2.061-2.485.065-2.484 8.807.109 7.995-3.765 7.98-3.952-.083-.673-.655-3.034-4.983-2.503l-1.24 1.781-12.552.056-1.082-1.809c-3.166-.379-4.903.565-4.946 2.554-.09 3.827 5.036 4.042 7.786 3.975 1.85-.006 1.898 2.389.079 2.383l-1.998.023.157 9.203c.658.879.871 1.869.967 2.979.522 3.22-2.316 9.525-4.77 15.203-2.378 4.222-5.647 9.705-6.242 15.629-.43 9.368 5.692 17.472 15.527 17.73 5.579-.078 11.85-2.017 16.865-10.692z" fill="#fff"/><path d="M118.7 249.09l-.409-1.135c-1.157-3.797.14-6.612 1.9-8.202-1.588-4.225-6.841-9.397-13.773-9.399-1.694-.014-3.681.373-5.653 1.222-4.842 2.086-9.591 6.961-9.684 15.531.121 6.418 5.18 13.264 13.128 13.325 7.761-.015 12.562-4.67 14.492-11.343z" fill="#2b5d9f"/><path d="M118.29 247.96c-1.205-2.728.14-6.612 1.9-8.203-1.588-4.225-6.841-9.397-13.773-9.399-1.694-.014-3.332.177-5.653 1.222-1.821 3.437-3.362 6.183-3.288 10.859.121 6.418 3.512 11.874 11.126 11.824 5.227-.064 7.78-3.576 9.689-6.304z" fill="#338cba"/><path d="M108.43 234.55c3.468.046 5.619 2.786 5.624 5.938.007 4.246-3.222 6.082-5.388 6.096-3.994.026-5.841-3.771-5.86-5.801-.034-3.583 2.779-6.271 5.624-6.233z" fill="#fff"/><path d="M160.1 269.14l1.962.157c3.673.07 5.691-.712 8.832-4.026s14.37-12.078 14.213-17.506c-.147-5.098-4.756-9.032-7.903-9.445l-5.034-.787c-6.004-.838-12.029-1.743-17.933-2.281 8.658 10.112 10.368 22.092 5.863 33.887z" fill="#d82e3e"/><path d="M162.07 269.3c3.673.07 5.691-.712 8.832-4.026s14.37-12.078 14.213-17.506c-.147-5.098-4.756-9.032-7.903-9.445l-5.034-.787c8.605 5.345 4.459 11.216-.866 18.698-2.982 4.19-5.976 8.774-9.243 13.065z" fill="#8d2c57"/><path d="M72.756 246.94c-.905.045-1.809.099-2.714 0-.258-1.737-.229-3.41-.157-5.073.753 2.14 1.748 3.747 2.871 5.073z" fill="#f3a64f"/><path d="M68.632 220.69c-4.76 15.206-6.882 39.834 5.562 40.489-1.526 1.918-4.071 3.156-7.485 3.815-6.215.96-13.721-6.23-13.054-18.418.415-8.515 4.929-20.683 7.552-23.995 1.588-1.89 3.357-2.292 7.425-1.891z" fill="#e03a35"/><path d="M68.632 220.69c-4.76 15.206-6.882 39.834 5.562 40.489-1.526 1.918-4.071 3.156-7.485 3.815-6.373-3.198-7.992-19.938-7.503-27.425-1.82 1.356-4.637 5.677-5.55 9.007.415-8.515 4.929-20.683 7.552-23.995 1.588-1.89 3.357-2.292 7.425-1.891z" fill="url(#G)"/><path d="M51.88 229.18c-5.376 13.064-6.467 29.766 4.169 37.903l-3.248.425-6.13 1.157c-3.85.726-5.089-.081-6.085-.999-5.331-4.917-10.365-10.141-15.102-15.731-3.344-4.442.008-10.861 4.326-12.899 4.502-2.125 8.704-3.848 13.053-5.751z" fill="#23336e"/><path d="M51.88 229.18c-5.376 13.064-6.467 29.766 4.169 37.903l-3.248.425c-5.017-3.882-11.265-10.392-13.495-13.024-3.931-4.64-3.162-6.576-3.227-8.334-.136-3.628 2.216-9.477 6.784-12.867z" fill="#2f559c"/><path d="M127.93 238.13c.559.018 1.053.101 1.455.275-.418-4.33.83-6.36 2.065-8.16-.911-15.581-3.697-36.962-15.593-53.741-8.708 2.506-16.285 1.86-23.596.472-5.495 9.249-8.585 18.237-10.894 27.175 2.107-1.024 4.397-1.972 7.748-2.478-4.452-6.884.793-12.708 4.051-12.703l23.478.236c6.76.629 7.867 13.397-.629 14.708v8.691c1.208 4.231 4.737 8.865 7.472 13.843 2.176 4.088 3.578 7.959 4.444 11.68z" fill="#fff"/><path d="M137.04 227.22c1.752-.505 3.814-.636 5.566-.623 1.149.057 2.005.542 2.948.874l12.916 1.752c-2.083-9.29-3.176-18.489-4.489-27.709 3.61 4.522 5.097 8.533 6.464 12.693 1.343 4.47 2.213 9.438 4.993 12.891 2.441 2.813 7.737 3.558 11.385 4.377l-12.498-37.414c-3.757-11.169-9.792-18.65-15.684-26.363l-14.971 4.39-12.223 3.389c9.407 13.703 14.154 30.549 15.594 51.742z" fill="url(#A)"/><path d="M137.04 227.22c1.752-.505 3.814-.636 5.566-.623 8.717-8.837 10.079-25.881-8.936-54.508l-12.223 3.389c9.407 13.703 14.154 30.549 15.594 51.742z" fill="#32b7c2"/><path d="M61.559 167.91c5.187 2.124 9.323 4.288 16.875 6.412 2.523.743 5.715 1.573 8.238 1.917-6.507 9.717-10.234 21.494-12.564 33.718-1.227 1.525-1.927 2.774-2.63 4.299l-6.614-.039c-5.221.214-7.186 2.924-9.357 5.476l-1.55.949 2.82-18.773c-3.668 3.036-6.084 8.409-8.192 14.356-1.212 3.54-1.169 7.766-6.792 10.011l-7.531 3.579c6.267-20.414 12.561-40.965 15.35-44.605 3.386-5.707 6.54-11.391 11.948-17.3z" fill="#fec919"/><path d="M83.744 234.15c-.026 3.519.785 10.58-5.168 10.804-1.897.071-3.656-1.175-4.196-2.3-1.665-3.468-1.884-7.724-1.707-11.871.342-4.56 1.459-10.742 4.094-15.82 4.046-6.559 8.643-8.455 13.529-8.967.937-.098 1.432.528 1.494.944.179 1.183.139 2.477-1.497 2.786-5.9 1.111-8.434 2.888-10.199 5.668 4.531-2.799 9.624-3.793 13.191-3.184 1.475.252 1.736 1.824 1.915 2.887.375 2.213-.057 3.414-1.115 3.692-10.495 2.759-11.842 4.076-14.722 5.691 3.591-.597 5.063-1.933 10.394-1.63 3.137.179 2.616 5.138-.027 6.961-.719.496-7.451 1.896-10.427 2.849-1.094.35-1.927 2.345-.732 4.27l2.286-.102c-.191-3.189 1.814-2.532 2.887-2.679z" fill="#fae1a4"/><path d="M78.434 174.32c2.523.743 5.715 1.573 8.238 1.917-6.507 9.717-10.234 21.494-12.564 33.718-1.227 1.525-1.927 2.774-2.63 4.299l-6.614-.039c-2-12.029.525-24.939 13.571-39.894z" fill="#e55b34"/><path d="M136.17 32.012l-2.025 13.706c-9.566-2.562-15.542-1.971-22.141-1.141l7.236 22.751c-8.238-.273-23.808 2.742-29.889 4.798-5.719 2.056-7.888 3.133-7.888 3.133l12.391-36.738c2.432-2.231 5.139-4.49 7.57-6.253 2.556-1.598 5.113-3.074 8.377-3.323 1.346-.103 2.119.243 2.733 1.2 3.359 3.218 7.609 5.785 12.368 7.354l4.739 1.494 3.107-7.551z" fill="#333367"/><path d="M136.17 32.012l-2.025 13.706c-9.566-2.562-15.542-1.971-22.141-1.141l7.236 22.751c-8.238-.273-23.808 2.742-29.889 4.798 6.678-13.601 9.991-26.356 12.073-39.858 2.556-1.598 5.113-3.074 8.377-3.323 1.346-.103 2.119.243 2.733 1.2 3.359 3.218 7.609 5.785 12.368 7.354l4.739 1.494 3.107-7.551z" fill="url(#B)"/><path d="M114.21 36.948c-3.1-1.317-2.345-4.07-1.671-6.804 3.359 3.218 7.609 5.785 12.368 7.354-2.618 1.135-6.07 1.414-10.697-.551z" fill="#9467a2"/><path d="M144.21 81.88l5.938 14.472c-4.119 2.495-11.749 1.703-16.517-2.36-16.246-13.841-44.311-7.916-49.474-5.27-8.309 4.573-7.493 6.885-16.596 7.315-3.83.181-6.13-1.41-8.652-2.989 2.613-2.438 2.675-2.202 8.573-6.764 6.252-4.995 23.309-11.479 32.878-13.057 8.546-1.145 7.591-1.173 13.175-1.234 13.216-.144 24.253 4.778 28.943 8.56l1.732 1.326z" fill="#1b254c"/><path d="M144.21 81.88l5.938 14.472c-4.119 2.495-11.749 1.703-16.517-2.36-16.246-13.841-44.311-7.916-49.474-5.27.049-.64.095-1.371.079-2.478-10.274 5.447-17.229 6.353-16.753.039 6.252-4.995 23.309-11.479 32.878-13.057 8.546-1.145 7.591-1.173 13.175-1.234 13.216-.144 24.253 4.778 28.943 8.56l1.732 1.326z" fill="#212f64"/><path d="M144.21 81.88l4.663 11.364c-5.84 2.764-13.363-.488-19.365-3.561-8.809-5.315-11.687-8.217-20.277-12.021-1.819-.805-6.917-3.755-8.871-4.433 8.546-1.145 7.591-1.173 13.175-1.234 13.216-.144 24.253 4.778 28.943 8.56l1.732 1.326z" fill="#1f2a54"/><path d="M144.21 81.88l4.663 11.364c-10.365-1.469-19.765-6.45-29.112-11.628-7.939-5-14.632-7.889-19.401-8.387 8.546-1.145 7.591-1.173 13.175-1.234 13.216-.144 24.253 4.778 28.943 8.56l1.732 1.326z" fill="#329fb6"/><path d="M146.02 86.277l2.858 6.966c-6.076 1.073-11.436-1.746-17.556-4.584-3.897-1.751-7.478-4.38-10.787-6.621 10.005 4.595 21.373 7.972 25.484 4.239z" fill="#2d64a2"/><path d="M113.54 71.993c13.216-.144 24.253 4.778 28.943 8.56-3.026 4.112-16.187-2.438-28.943-8.56z" fill="url(#C)"/><path d="M82.518 95.047c13.474-7.713 36.918-5.352 44.001 0l.694 33.849-9.18 4.742-1.508-2.012c-1.629-1.31-3.036-2.651-6.233-3.748-1.715.877-3.182 1.705-5.589 2.72-1.301-.696-3.224-1.631-5.487-2.697-2.729.904-4.583 2.274-6.209 3.766l-1.532 2.031c-2.829-1.436-4.12-2.213-9.272-4.645z" fill="#f9b95d"/><path d="M85.299 101.94c12.473-8.269 31.857-5.797 38.55.056l.582 25.229-7.907 4.398c-1.629-1.31-3.036-2.651-6.233-3.748-1.715.877-3.182 1.705-5.589 2.72-1.301-.696-3.224-1.631-5.487-2.697-2.729.904-4.583 2.274-6.209 3.766l-7.856-4.282z" fill="#fae1a5"/><path d="M116.29 112.71c2.049.112 2.937 1.719 3.009 3.048.13 2.414-1.606 3.362-2.989 3.343-2.12-.03-3.054-1.964-2.969-3.323.085-1.369 1.248-3.16 2.95-3.067zm-22.848.08c2.049.112 2.819 1.719 2.891 3.048.13 2.414-1.685 3.303-3.067 3.264-1.746-.049-2.975-1.885-2.891-3.245.085-1.369 1.366-3.16 3.067-3.067zm14.068-7.94c-.168.405.443 3.475.945 3.657.289.17 3.983-.679 5.729-.765 3.66-.18 9.73 3.98 10.289 4.088.253.024 1.478-.624 1.112-1.321-3.411-4.891-7.31-7.094-11.763-7.175-2.872-.052-6.291 1.114-6.313 1.516zm-5.23-.04c.168.405-.423 3.475-.926 3.657-.289.17-3.611-.667-5.355-.784-3.914-.264-10.203 3.966-10.545 4.147-.253.024-1.478-.624-1.112-1.321 3.411-4.891 7.31-7.094 11.763-7.175 2.872-.052 6.153 1.075 6.175 1.476z" fill="#19224c"/><path d="M78.743 114.29l-.222 9.149c-1.036-.114-3.181-.646-3.309-4.672-.116-3.637 1.842-3.932 3.532-4.477zm36.937 26.72l-.859 2.219c-.645 1.794-1.39 3.774-2.405 3.727-1.442-.067-1.512-1.244-2.187-1.927-1.397-1.869-2.385-2.298-5.362-2.265-1.891.021-4.199.104-5.59 2.206-.625.945-.843 2.018-2.149 1.999-1.638-.024-2.281-2.83-3.44-5.845 1.507.143 2.841.16 3.99-.939l2.753-2.433c.339-.287.628-.656 1.287-.77.589-.102 2.061.894 2.943.882.92-.012 1.945-.867 2.848-.792s1.996 1.339 3.585 2.665c1.362 1.137 2.732 1.676 4.586 1.272z" fill="#fae1a5"/><path d="M115.68 141.01l-.859 2.219c-1.063.369-2.336-.776-3.608-1.936-2.054-1.871-2.939-1.704-5.913-1.577-2.346.1-3.366-1.073-4.869-1.963.339-.287.628-.656 1.287-.77.589-.102 2.061.894 2.943.882.92-.012 1.945-.867 2.848-.792s1.996 1.339 3.585 2.665c1.362 1.137 2.732 1.676 4.586 1.272z" fill="#f1aa5b"/><path d="M104.14 110.32l-.331 2.146-1.811 12.509c.697 1.079 1.444 1.488 2.586 1.529 1.294-.153 2.182-.747 2.586-1.863.431-2.568.453-5.135.528-7.703l2.086 8.843c.311 1.002-5.031 4.058-5.645 4.088-1.07-.609-5.752-2-5.367-3.671 1.242-4.913 3.214-10.69 5.367-15.879z" fill="#f9b95d"/><path d="M103.81 112.46l-1.811 12.509c.697 1.079 1.444 1.488 2.586 1.529 1.294-.153 2.182-.747 2.586-1.863.431-2.568.453-5.135.528-7.703l1.557 7.87c.341 1.578-4.003 4.037-4.894 3.865-1.736-.307-4.893-1.834-4.449-3.532z" fill="#c66249"/><path d="M130.42 114.29l.222 9.149c1.036-.114 3.181-.646 3.309-4.672.116-3.637-1.842-3.932-3.532-4.477z" fill="#fae1a5"/><path d="M136.41 139.56l-15.345 15.246-17.892 18.275c8.809-.444 21.387-4.429 32.814-8.009 6.102-1.932 11.974-3.482 17.631-4.672 10.253-1.189 16.307 1.471 22.024 4.672 5.911 4.113 10.988 8.759 12.57 16.129 2.522-16.697-14.047-32.939-29.922-35.484-7.854-7.139-16.067-7.58-21.879-6.157z" fill="#862b5a"/><path d="M136.41 139.56l-15.345 15.246-17.892 18.275c8.809-.444 21.387-4.429 32.814-8.009 6.102-1.932 11.974-3.482 17.631-4.672 10.253-1.189 16.307 1.471 22.024 4.672 5.911 4.113 10.988 8.759 12.57 16.129 1.657-16.225-23.224-32.911-39.099-32.703 1.119-1.29 3.107-2.901 4.683-3.359-.788-2.363-7.481-6.898-17.385-5.579z" fill="url(#E)"/><path d="M143.08 150.67c-4.615.568-12.15 6.016-24.822 16.572 1.675-2.606 3.857-4.979 6.117-7.107-2.933.736-8.715 4.758-11.775 5.832 2.958-3.173 9.052-7.284 8.461-11.161-2.203 2.416-11.917 12.186-17.892 18.275 8.809-.444 21.387-4.429 32.814-8.009 6.102-1.932 11.974-3.482 17.631-4.672 10.253-1.189 16.267 1.236 22.024 4.672-7.335-6.161-14.421-10.215-21.024-10.203-2.383-1.337-28.829 7.896-27.686 7.678 4.854-4.229 10.873-8.317 16.152-11.878z" fill="url(#D)"/><path d="M85.304 150.37l.254 2.221c.214 1.356.41 2.717.333 4.146l19.262 14.102c-4.106 2.589-13.881.409-24.041-2.253-2.735-.832-5.232-1.641-7.671-2.535-1.834-.659-3.052-1.171-4.659-1.855-5.005-2.133-9.002-4.18-12.858-6.353 9.375-6.028 18.209-8.25 29.38-7.472z" fill="#27717e"/><path d="M85.558 152.59c.214 1.356.41 2.717.333 4.146l19.262 14.102c-4.106 2.589-13.881.409-24.041-2.253-2.735-.832-5.232-1.641-7.671-2.535-1.834-.659-3.052-1.171-4.659-1.855-.89-6.476-.278-12.348 16.776-11.604z" fill="url(#F)"/><path d="M80.701 161.89c5.491 1.77 10.951 3.841 16.389 6.135-5.424-.518-13.763.272-15.979.559-2.735-.832-5.232-1.641-7.671-2.535 1.384-1.63 4.105-2.946 7.261-4.159z" fill="#79a25d"/><path d="M103.51 162.78c2.029 5.571 4.137 10.33 7.04 15.613 1.511 2.75 1.321 6.524.275 8.337-2.382 4.131-5.126 5.079-7.433 6.096-1.858-1.245-5.123-2.827-6.646-7.865-.518-1.712-.954-4.426-.551-6.253 1.006-4.555 4.598-10.742 7.315-15.928z" fill="#fec40e"/><path d="M102.64 171.07c.895 3.696 2.028 8.483 4.169 10.933a.98.98 0 0 1 .039.983c-.425.346-.784.699-2.124.944-3.982-1.015-4.333-4.23-4.562-6.056-.2-1.593.651-3.268 2.478-6.804z" fill="#fff"/><path transform="translate(11.012 13.135)" d="M12.164 163.44c1.171 4.509 4.377 7.571 7.486 9.494-3.234 1.51-6.078 4.502-7.347 8.439-1.019-3.074-3.38-6.852-7.486-8.541 4.208-1.849 6.597-5.656 7.348-9.393z" clip-path="url(#H)" fill="#219299"/><path transform="translate(17.036 -21.035)" d="M12.164 163.44c1.226 4.611 4.463 7.94 7.958 9.651-3.155 1.258-6.691 3.534-7.977 8.596-.846-4.546-4.245-7.151-7.958-8.383 3.209-1.33 6.51-5.262 7.977-9.864z" clip-path="url(#I)" fill="#4f3e7f"/><path d="M48.053 51.057c4.481 9.305 8.867 12.119 14.016 14.46-6.676 3.219-10.155 8.166-13.459 14.349-2.529-4.996-4.487-10.039-13.904-14.46 5.341-2.439 9.988-4.485 13.348-14.349z" fill="#19224d"/><path d="M33.024 80.731c1.403 2.946 2.775 3.837 4.387 4.578-2.09 1.019-3.179 2.585-4.213 4.543-.792-1.582-1.404-3.178-4.352-4.578 1.672-.772 3.126-1.42 4.178-4.543z" fill="#219299"/><path d="M68.321 129.74c1.372 2.918 2.138 3.475 3.248 4.578-1.436 1.186-2.353 2.585-3.119 4.543-.614-1.637-1.429-2.817-3.222-4.578 1.21-1.05 2.008-1.865 3.093-4.543z" fill="#fec00d"/><use xlink:href="#M" transform="matrix(1.1728 0 0 1.2457 35.697 -83.453)" clip-path="url(#J)" fill="#3660a9"/><use xlink:href="#M" transform="matrix(1.1728 0 0 1.3481 147.76 -117.47)" clip-path="url(#K)" fill="#e53c37"/><g fill="#219299"><path transform="matrix(.90878 0 0 1.0689 172.05 -55.254)" d="M12.164 163.44c1.214 5.183 3.865 8.051 8.762 9.336-4.876 1.143-7.55 4.112-8.781 8.912-.866-4.829-3.913-7.905-8.494-8.825 4.556-1.301 7.166-4.341 8.513-9.422z" clip-path="url(#L)"/><path d="M10.104 119.21l2.747.81-.85 2.881-2.747-.81z"/></g><path d="M35.902 164.45l2.968 4.343-3.112 4.053-3.33-3.909z" fill="#e34037"/><path d="M44.361 100.79l5.93 5.152-3.703 6.725-6.371-4.422zm21.653-48.827l3.185.916-.692 2.971-3.277-.587zM192.99 118.02l4.171 1.108-.906 3.597-4.291-.711z" fill="#3560a7"/><path d="M179.59 68.959l3.451 2.591-2.188 2.995-3.712-2.268zM38.561 114.79l3.451 2.591-2.188 2.995-3.712-2.268z" fill="#fde7ba"/><path d="M164 89.968l3.41 1.153-.869 3-3.523-.822z" fill="#e53c37"/><path d="M166.16 61.161l2.617 4.581-3.724 2.41-3.046-4.332z" fill="#fde7ba"/><path d="M38.857 171.54l.359 1.702-1.603.588-.54-1.644z" fill="#e34037"/><path d="M72.265 74.485a1.835 1.824 0 0 1-1.835 1.824 1.835 1.824 0 0 1-1.835-1.823 1.835 1.824 0 0 1 1.834-1.825 1.835 1.824 0 0 1 1.836 1.823l-1.835.001z" fill="#e53c37"/><path d="M151.78 46.428c.954 3.983 3.025 6.351 8.144 7.261-4.463 1.269-6.455 4.322-7.826 8.535-.995-4.089-3.648-7.043-7.97-8.484 4.632-1.221 6.633-3.21 7.651-7.311z" fill="#de333a"/><path d="M21.95 110.55c.954 3.983 3.025 6.351 8.145 7.261-4.463 1.269-6.455 4.322-7.826 8.535-.995-4.089-3.648-7.043-7.969-8.484 4.632-1.221 6.633-3.21 7.651-7.311z" fill="#f9d482"/><path d="M171.94 78.967c3.224 4.451 4.397 5.164 6.951 7.091-3.2 2.357-5.036 4.004-6.675 7.036-1.81-2.672-2.559-3.921-6.896-7.091 2.76-1.752 4.731-2.755 6.62-7.036z" fill="#ffc30e"/><path d="M187.13 96.99c1.184 2.766 2.343 3.603 3.703 4.299-1.764.957-2.683 2.428-3.556 4.266-.668-1.485-1.186-2.984-3.674-4.299 1.411-.725 2.639-1.333 3.527-4.266z" fill="#57a568"/><path d="M20.145 93.175l3.779-1.459 1.119 2.898-3.779 1.459zm141.772-18.532l-1.304 1.765-2.352.134-1.048-1.63 1.304-1.765 2.352-.134z" fill="#219299"/></svg>